<svg width="279" height="108" viewBox="0 0 279 108" fill="none" xmlns="http://www.w3.org/2000/svg">
<path d="M206.537 32.9765C259.389 44.0261 276.201 57.8668 278 63.406C278 67.3769 271.811 69.0891 268.716 69.4488C249.213 71.463 216.598 75.1893 242.161 73.9808C267.723 72.7723 263.895 76.3547 258.785 78.297C244.967 90.2098 192.432 86.5698 167.891 83.2607C152.346 97.7633 128.885 105.13 119.097 107C121.861 106.137 143.134 90.8141 153.426 83.2607L103.553 77.0022C98.2271 81.3184 87.7919 89.2603 88.6555 86.4979C89.5191 83.7355 87.576 76.2828 86.4965 72.9017C81.099 71.8946 69.7426 70.7005 67.4973 73.9808C65.2519 77.2611 54.4713 78.6567 49.3617 78.9445C52.3843 77.218 52.8161 71.6069 52.8161 69.8804C52.8161 68.1539 34.4645 62.9744 34.8963 67.9381C35.2418 71.909 21.5105 84.2678 14.6017 89.9509L21.5105 58.2265L1 16.1432C14.3858 29.1639 41.4165 55.3347 42.4528 55.8526C43.7482 56.5 48.0662 47.6518 52.8161 47.4359C56.6159 47.2633 59.5809 49.9538 60.5885 51.3206C80.2354 43.5513 131.62 38.156 141.767 35.7821C151.914 33.4082 140.256 -0.25847 146.733 1.0364C151.914 2.0723 166.02 20.7472 172.425 29.9552C185.033 30.4731 200.42 32.1852 206.537 32.9765Z" fill="#5674DE" stroke="white"/>
</svg>
